<?xml version="1.0" standalone="no"?>
<!DOCTYPE svg PUBLIC "-//W3C//DTD SVG 20010904//EN"
 "http://www.w3.org/TR/2001/REC-SVG-20010904/DTD/svg10.dtd">
<svg version="1.0" xmlns="http://www.w3.org/2000/svg"
 width="1536.000000pt" height="1024.000000pt" viewBox="0 0 1536.000000 1024.000000"
 preserveAspectRatio="xMidYMid meet">

<g transform="translate(0.000000,1024.000000) scale(0.100000,-0.100000)"
fill="#000000" stroke="none">
<path d="M7400 8092 c-47 -25 -83 -94 -75 -142 4 -19 17 -49 30 -66 13 -16 25
-43 27 -60 l3 -29 -475 -2 c-470 -3 -475 -3 -492 -24 -10 -12 -18 -31 -18 -44
0 -33 37 -75 66 -75 13 0 24 -2 24 -4 0 -2 -44 -95 -98 -207 -54 -112 -122
-255 -152 -316 l-53 -113 -40 0 -40 0 7 -41 c10 -64 49 -129 110 -187 145
-138 394 -170 583 -77 119 59 215 175 217 264 1 34 -1 36 -36 39 -26 2 -39 9
-43 23 -6 17 -132 281 -254 528 -22 46 -41 86 -41 88 0 1 164 3 365 3 l365 0
0 -565 0 -565 -433 0 c-488 0 -512 -3 -607 -69 -30 -21 -69 -59 -87 -86 -66
-95 -64 -55 -61 -1071 l3 -919 26 -56 c47 -99 122 -166 229 -204 40 -14 154
-16 965 -18 506 -2 952 1 991 4 114 11 227 82 286 179 49 82 48 59 48 1036 0
910 0 913 -21 971 -30 80 -122 172 -204 204 -60 24 -64 24 -507 27 l-448 3 0
564 0 565 369 0 370 0 -76 -157 c-41 -87 -110 -231 -153 -320 l-79 -163 -35 0
c-34 0 -36 -2 -36 -33 0 -80 88 -200 191 -260 191 -112 493 -72 633 83 44 49
83 125 88 170 3 34 2 35 -37 38 l-40 3 -80 167 c-43 92 -112 234 -152 316 -40
82 -73 151 -73 153 0 2 11 3 25 3 31 0 75 41 75 70 0 11 -7 32 -16 45 l-16 25
-479 0 -479 0 0 26 c0 14 11 40 25 58 97 127 -43 292 -185 218z m-795 -564
c16 -35 77 -164 137 -287 59 -123 108 -226 108 -227 0 -2 -126 -4 -280 -4
-154 0 -280 2 -280 3 0 2 58 123 129 268 70 145 131 274 135 287 4 12 11 22
15 22 4 0 20 -28 36 -62z m1823 -43 c22 -49 81 -175 131 -279 50 -104 91 -190
91 -192 0 -2 -124 -4 -275 -4 -151 0 -275 3 -275 8 0 4 33 75 73 157 40 83
102 210 137 283 35 73 67 129 71 125 4 -5 25 -48 47 -98z m-1489 -1381 c18
-23 21 -41 21 -135 l0 -109 119 0 c113 0 121 -1 135 -22 9 -12 16 -32 16 -43
0 -11 -7 -31 -16 -43 -14 -21 -22 -22 -135 -22 l-119 0 0 -118 c0 -90 -4 -123
-16 -140 -19 -28 -67 -29 -94 -2 -18 18 -20 33 -20 140 l0 120 -115 0 c-102 0
-117 2 -135 20 -24 24 -26 67 -3 92 14 15 32 18 135 18 l118 0 0 115 c0 102 2
117 20 135 28 28 64 25 89 -6z m1416 -264 c9 -10 18 -31 18 -45 0 -14 -9 -35
-18 -45 -17 -19 -32 -20 -312 -20 -280 0 -294 1 -313 20 -11 11 -20 31 -20 45
0 14 9 34 20 45 19 19 33 20 313 20 280 0 295 -1 312 -20z m-1534 -877 l80
-77 74 74 c61 61 79 73 106 73 34 0 69 -31 69 -60 0 -9 -36 -52 -79 -96 l-79
-81 79 -88 c43 -48 79 -94 79 -101 0 -30 -31 -57 -67 -57 -30 0 -46 10 -109
71 l-73 72 -38 -33 c-21 -18 -55 -50 -75 -71 -46 -47 -79 -57 -113 -35 -18 12
-25 25 -25 49 0 26 13 45 77 109 l78 78 -78 78 c-84 84 -95 114 -57 152 37 37
66 26 151 -57z m1527 31 c19 -13 22 -24 20 -57 -5 -65 -12 -67 -331 -67 l-278
0 -24 25 c-14 13 -25 34 -25 45 0 12 11 32 25 45 l24 25 283 0 c243 0 287 -2
306 -16z m0 -310 c29 -20 30 -76 2 -104 -19 -19 -33 -20 -305 -20 l-286 0 -24
25 c-30 30 -31 54 -4 89 l20 26 288 0 c243 0 290 -2 309 -16z"/>
<path d="M6581 3492 c-37 -20 -71 -73 -71 -110 0 -74 56 -126 135 -126 111 0
172 106 112 195 -40 60 -110 76 -176 41z"/>
<path d="M9810 2900 l0 -590 110 0 110 0 0 590 0 590 -110 0 -110 0 0 -590z"/>
<path d="M8210 3474 c-164 -27 -241 -64 -336 -158 -108 -109 -158 -214 -174
-368 -38 -368 185 -638 541 -655 212 -11 368 57 469 203 32 45 65 122 57 130
-2 3 -42 14 -88 25 -46 11 -91 22 -100 24 -11 4 -21 -7 -34 -36 -27 -60 -106
-126 -173 -145 -127 -37 -259 1 -351 101 -146 160 -131 450 31 600 154 143
385 104 490 -82 22 -39 35 -52 46 -48 8 3 53 15 99 27 48 12 83 26 83 33 0 7
-16 43 -34 81 -61 120 -171 210 -306 248 -58 16 -178 27 -220 20z"/>
<path d="M4455 3017 c0 -416 -1 -433 -20 -467 -53 -90 -209 -92 -247 -3 -7 16
-13 29 -14 31 -1 2 -48 -9 -103 -24 -114 -30 -112 -28 -65 -111 59 -103 189
-160 343 -151 171 10 289 114 320 283 7 36 11 215 11 467 l0 408 -112 0 -113
0 0 -433z"/>
<path d="M6218 3156 c-43 -15 -89 -51 -112 -86 -15 -25 -15 -24 -16 28 l0 52
-110 0 -110 0 0 -420 0 -420 110 0 110 0 0 248 c0 218 3 252 19 287 37 83 111
121 222 113 l69 -5 0 102 c0 85 -3 104 -16 109 -27 10 -127 6 -166 -8z"/>
<path d="M7127 3155 c-146 -40 -226 -166 -196 -307 14 -64 70 -127 137 -156
27 -12 97 -33 156 -48 151 -38 194 -79 150 -143 -34 -47 -138 -66 -207 -37
-36 14 -87 69 -87 92 0 8 -3 14 -7 14 -6 0 -175 -60 -180 -64 -2 -1 7 -20 18
-42 31 -58 87 -111 149 -142 51 -25 64 -27 185 -27 111 0 137 3 176 21 62 29
118 81 140 129 28 60 26 169 -4 226 -44 82 -97 110 -312 165 -105 27 -142 78
-96 135 17 22 27 24 99 24 76 0 83 -2 111 -29 17 -16 33 -37 36 -47 5 -16 9
-16 66 2 34 11 72 19 85 19 30 0 32 26 4 78 -25 48 -47 74 -86 100 -70 48
-233 66 -337 37z"/>
<path d="M9149 3157 c-61 -17 -131 -59 -164 -99 -34 -40 -77 -130 -67 -139 4
-3 36 -13 72 -22 36 -9 74 -19 85 -22 16 -4 26 5 47 39 35 58 68 79 137 84 81
6 126 -15 151 -70 23 -51 27 -123 7 -115 -35 13 -150 17 -229 8 -226 -26 -345
-179 -282 -363 33 -97 129 -159 259 -166 96 -5 147 7 214 52 l50 34 7 -34 6
-34 100 0 99 0 -3 323 -3 323 -30 59 c-33 65 -92 117 -153 136 -56 17 -248 21
-303 6z m251 -486 c18 -5 26 -15 28 -36 13 -109 -92 -195 -222 -182 -40 4 -55
11 -79 37 -26 29 -29 38 -24 79 6 50 37 84 92 100 35 11 169 12 205 2z"/>
<path d="M10487 3160 c-108 -28 -218 -115 -266 -212 -41 -81 -54 -156 -48
-263 6 -120 33 -189 102 -263 94 -102 192 -138 356 -130 101 4 172 29 244 84
36 27 115 137 115 159 0 9 -29 20 -77 31 -43 9 -85 20 -93 24 -11 6 -22 -2
-38 -29 -48 -75 -129 -108 -222 -90 -46 9 -63 19 -101 58 -52 54 -69 103 -69
202 0 81 16 130 58 179 55 66 119 88 199 70 57 -13 97 -41 128 -90 l24 -38 88
23 c48 12 89 27 91 33 6 20 -60 132 -101 168 -68 62 -134 86 -250 90 -56 2
-119 -1 -140 -6z"/>
<path d="M4882 2843 c3 -265 6 -315 22 -355 25 -66 86 -132 154 -165 51 -25
67 -28 162 -28 118 0 146 10 213 74 l39 36 -7 -47 -7 -48 111 0 111 0 0 420 0
420 -110 0 -110 0 0 -271 c0 -255 -1 -273 -21 -308 -32 -58 -80 -85 -158 -89
-85 -4 -127 17 -158 78 -22 43 -23 54 -23 317 l0 273 -111 0 -110 0 3 -307z"/>
<path d="M6540 2730 l0 -420 108 0 107 0 -2 102 c-1 57 -2 246 -3 421 l0 317
-105 0 -105 0 0 -420z"/>
</g>
</svg>
